<?xml version="1.0" standalone="no"?>
<!DOCTYPE svg PUBLIC "-//W3C//DTD SVG 20010904//EN"
 "http://www.w3.org/TR/2001/REC-SVG-20010904/DTD/svg10.dtd">
<svg version="1.0" xmlns="http://www.w3.org/2000/svg"
 width="512.000000pt" height="512.000000pt" viewBox="0 0 512.000000 512.000000"
 preserveAspectRatio="xMidYMid meet">
<metadata>
Created by potrace 1.11, written by Peter Selinger 2001-2013
</metadata>
<g transform="translate(0.000000,512.000000) scale(0.100000,-0.100000)"
fill="#000000" stroke="none">
<path d="M645 4366 c-37 -16 -70 -52 -84 -89 -8 -20 -11 -429 -11 -1318 l0
-1289 2010 0 2010 0 -2 1304 c-3 1300 -3 1305 -24 1332 -11 15 -33 37 -48 48
l-27 21 -1897 2 c-1566 2 -1902 0 -1927 -11z m1947 -83 c22 -20 23 -41 1 -65
-20 -22 -41 -23 -65 -1 -22 20 -23 41 -1 65 20 22 41 23 65 1z m1718 -1258 l0
-1095 -1750 0 -1750 0 0 1095 0 1095 1750 0 1750 0 0 -1095z"/>
<path d="M927 3794 c-4 -4 -7 -400 -7 -881 l0 -873 1629 0 c1414 0 1630 2
1641 15 6 8 9 19 5 25 -4 7 -508 10 -1616 10 l-1609 0 -2 852 c-3 761 -5 853
-18 856 -9 1 -19 0 -23 -4z"/>
<path d="M3294 3513 c-67 -98 -124 -183 -127 -190 -13 -21 22 -43 69 -43 l44
0 0 -550 0 -550 150 0 150 0 0 550 0 550 44 0 c57 0 82 21 63 54 -47 84 -243
356 -257 356 -10 0 -61 -67 -136 -177z"/>
<path d="M2026 2974 c-3 -8 -6 -191 -6 -405 l0 -389 150 0 150 0 -2 403 -3
402 -141 3 c-123 2 -142 0 -148 -14z"/>
<path d="M2662 2728 c-9 -9 -12 -82 -12 -280 l0 -268 150 0 150 0 -2 278 -3
277 -135 3 c-97 2 -139 -1 -148 -10z"/>
<path d="M1402 2518 c-8 -8 -12 -60 -12 -175 l0 -163 150 0 150 0 -2 173 -3
172 -135 3 c-97 2 -139 -1 -148 -10z"/>
<path d="M272 1287 c-149 -150 -272 -281 -272 -290 0 -9 9 -26 20 -37 20 -20
33 -20 2540 -20 2507 0 2520 0 2540 20 11 11 20 28 20 37 0 9 -123 140 -272
290 l-273 273 -2015 0 -2015 0 -273 -273z m4211 53 c42 -50 77 -96 77 -101 0
-6 -5 -19 -10 -30 -10 -19 -29 -19 -733 -19 l-722 0 0 -32 0 -33 -535 0 -535
0 0 33 0 32 -722 0 c-704 0 -723 0 -733 19 -5 11 -10 24 -10 30 0 5 34 50 77
100 l76 91 1846 0 1846 0 78 -90z"/>
<path d="M3 874 c6 -55 31 -93 78 -116 32 -17 171 -18 2479 -18 2308 0 2447 1
2479 18 47 23 72 61 78 116 l6 47 -27 -11 c-18 -7 -379 -10 -1060 -10 -907 0
-1035 -2 -1046 -15 -19 -23 -841 -23 -860 0 -11 13 -139 15 -1046 15 -681 0
-1042 3 -1060 10 l-27 11 6 -47z m485 -52 c4 -28 -24 -40 -45 -19 -21 21 -9
49 19 45 15 -2 24 -11 26 -26z m140 2 c3 -23 -18 -37 -43 -28 -16 6 -20 35 -8
48 14 14 48 1 51 -20z m138 11 c7 -18 -13 -45 -33 -45 -17 0 -27 24 -19 45 7
20 45 19 52 0z"/>
</g>
</svg>
